<?xml version="1.0" encoding="UTF-8"?>
<svg width="236px" height="236px" viewBox="0 0 236 236" version="1.1" xmlns="http://www.w3.org/2000/svg" xmlns:xlink="http://www.w3.org/1999/xlink">
    <!-- Generator: Sketch 61.2 (89653) - https://sketch.com -->
    <title>away</title>
    <desc>Created with Sketch.</desc>
    <g id="away" stroke="none" stroke-width="1" fill="none" fill-rule="evenodd">
        <path d="M148.632942,109.89729 C148.126612,109.89729 147.367118,109.644081 146.860788,109.390871 C144.83547,108.378032 142.556986,107.365194 140.278503,106.352355 C139.012679,105.845936 138.253185,104.833097 138.00002,103.567049 C137.746855,102.301 138.253185,101.034952 139.265844,100.022113 C141.037998,98.5028551 142.556986,96.7303873 144.32914,94.9579196 C145.594964,93.4386616 148.126612,93.1854519 149.645601,94.7047099 C151.16459,95.9707583 151.417755,98.5028551 149.898766,100.022113 C149.392436,100.528532 148.886107,101.288161 148.379777,101.794581 C149.139271,102.047791 149.645601,102.55421 150.405096,102.80742 C152.177249,103.820258 152.936744,106.099145 151.924084,107.871613 C151.417755,109.390871 150.151931,109.89729 148.632942,109.89729 Z" id="Path" fill="#000000" fill-rule="nonzero"></path>
        <path d="M155.721557,89.3873068 C154.962062,89.3873068 154.455732,89.1340971 153.949403,88.8808874 C152.177249,87.8680487 151.417755,85.5891617 152.430414,83.8166939 C154.708897,79.7653392 156.734216,75.4607747 158.253205,71.1562102 C159.012699,69.1305328 161.038018,68.1176941 163.063336,68.8773231 C165.088654,69.6369522 166.101314,71.6626296 165.341819,73.688307 C163.569666,78.4992908 161.544347,83.3102746 159.012699,87.6148391 C158.253205,88.6276778 156.987381,89.3873068 155.721557,89.3873068 Z M80.2784435,89.3873068 C79.0126194,89.3873068 77.7467954,88.6276778 76.987301,87.3616294 C74.4556529,82.8038552 72.4303344,78.2460811 70.6581807,73.4350973 C69.8986863,71.4094199 71.1645104,69.3837425 72.936664,68.6241135 C74.9619825,67.8644845 76.987301,69.1305328 77.7467954,70.9030005 C79.2657842,75.207565 81.2911027,79.5121295 83.569586,83.5634843 C84.5822452,85.335952 83.8227508,87.6148391 82.0505971,88.6276778 C81.5442675,89.1340971 81.0379379,89.3873068 80.2784435,89.3873068 Z M165.088654,61.7874523 C164.83549,61.7874523 164.83549,61.7874523 164.582325,61.7874523 C162.557006,61.5342426 161.038018,59.7617749 161.291182,57.4828878 C161.544347,55.4572104 161.544347,53.431533 161.544347,51.4058556 C161.544347,48.8737589 161.291182,46.3416621 160.784853,43.8095654 C160.531688,41.783888 161.797512,39.7582106 163.82283,39.5050009 C165.848149,39.2517912 167.873467,40.5178396 168.126632,42.543517 C168.632962,45.3288234 168.886127,48.3673395 168.886127,51.4058556 C168.886127,53.6847427 168.632962,55.9636298 168.379797,58.2425168 C168.632962,60.2681942 166.860808,61.7874523 165.088654,61.7874523 Z M70.9113455,61.5342426 C69.1391919,61.5342426 67.3670382,60.0149845 67.1138734,58.2425168 C66.8607086,55.9636298 66.6075438,53.6847427 66.6075438,51.4058556 C66.6075438,48.3673395 66.8607086,45.3288234 67.3670382,42.543517 C67.620203,40.5178396 69.6455215,38.9985816 71.67084,39.5050009 C73.6961584,39.7582106 75.2151473,41.783888 74.7088177,43.8095654 C74.2024881,46.3416621 73.9493232,48.8737589 73.9493232,51.4058556 C73.9493232,53.1783233 73.9493232,55.2040007 74.2024881,57.2296781 C74.4556529,59.2553555 72.936664,61.2810329 70.9113455,61.5342426 C71.4176752,61.5342426 71.1645104,61.5342426 70.9113455,61.5342426 Z M160.025358,33.174759 C158.759534,33.174759 157.240545,32.41513 156.734216,31.1490817 C154.708897,27.0977269 151.924084,23.5527914 148.632942,20.2610656 C147.113953,18.7418076 147.113953,16.4629205 148.632942,14.9436625 C150.151931,13.4244044 152.430414,13.4244044 153.949403,14.9436625 C157.746875,18.7418076 161.038018,23.0463721 163.316501,27.6041462 C164.32916,29.3766139 163.569666,31.655501 161.797512,32.6683397 C161.038018,33.174759 160.531688,33.174759 160.025358,33.174759 Z M76.2278065,33.174759 C75.7214769,33.174759 74.9619825,32.9215494 74.4556529,32.6683397 C72.6834992,31.655501 71.9240048,29.3766139 72.936664,27.6041462 C75.4683121,23.0463721 78.5062898,18.7418076 82.3037619,14.9436625 C83.8227508,13.4244044 86.1012341,13.4244044 87.6202229,14.9436625 C89.1392118,16.4629205 89.1392118,18.7418076 87.6202229,20.2610656 C84.3290804,23.5527914 81.5442675,27.0977269 79.518949,31.1490817 C78.7594546,32.41513 77.4936306,33.174759 76.2278065,33.174759 Z M139.265844,12.9179851 C138.759514,12.9179851 138.00002,12.6647754 137.49369,12.4115657 C133.443053,10.3858883 129.139252,8.8666303 124.582285,8.36021095 C122.556967,8.10700127 121.037978,6.08132388 121.291143,4.05564648 C121.544307,2.02996909 123.569626,0.510711038 125.594944,0.763920713 C130.911405,1.52354974 135.974701,3.29601746 140.531668,5.57490453 C142.303822,6.58774323 143.063316,8.8666303 142.303822,10.639098 C142.050657,12.1583561 140.784833,12.9179851 139.265844,12.9179851 Z M96.7341561,12.9179851 C95.468332,12.9179851 93.9493432,12.1583561 93.4430135,10.8923077 C92.4303543,9.11983997 93.1898487,6.8409529 95.2151672,5.8281142 C100.025299,3.54922713 105.088595,1.77675941 110.405056,1.01713039 C112.430374,0.763920713 114.455693,2.02996909 114.708857,4.30885616 C114.962022,6.33453355 113.696198,8.36021095 111.417715,8.61342062 C106.860748,9.37304965 102.556947,10.639098 98.5063097,12.6647754 C97.9999801,12.6647754 97.4936505,12.9179851 96.7341561,12.9179851 Z" id="Shape" fill="#000000" fill-rule="nonzero"></path>
        <path d="M87.3670581,109.89729 C86.1012341,109.89729 84.5822452,109.137661 84.0759156,107.871613 C83.0632564,106.099145 83.8227508,103.820258 85.5949045,102.80742 C86.3543989,102.55421 86.8607285,102.047791 87.6202229,101.794581 C87.1138933,101.288161 86.6075637,100.781742 86.1012341,100.022113 C84.83541,98.5028551 84.83541,95.9707583 86.3543989,94.7047099 C87.8733877,93.4386616 90.4050358,93.4386616 91.6708599,94.9579196 C93.1898487,96.7303873 94.9620024,98.5028551 96.7341561,100.022113 C97.7468153,100.781742 98.2531449,102.301 97.9999801,103.567049 C97.7468153,104.833097 96.9873209,105.845936 95.7214968,106.352355 C93.4430135,107.111984 91.4176951,108.124823 89.1392118,109.390871 C88.3797174,109.89729 87.8733877,109.89729 87.3670581,109.89729 Z" id="Path" fill="#000000" fill-rule="nonzero"></path>
        <path d="M183.82285,235.742499 L173.189928,235.742499 C171.16461,235.742499 169.392456,233.970031 169.392456,231.944354 C169.392456,229.918676 171.16461,228.146208 173.189928,228.146208 L183.82285,228.146208 C184.83551,228.146208 185.848169,227.892999 186.607663,227.386579 C188.379817,226.373741 190.6583,226.88016 191.924124,228.652628 C192.936783,230.425095 192.430454,232.703983 190.6583,233.970031 C188.379817,234.98287 186.101334,235.742499 183.82285,235.742499 Z M157.240545,235.742499 L141.544327,235.742499 C139.519009,235.742499 137.746855,233.970031 137.746855,231.944354 C137.746855,229.918676 139.519009,228.146208 141.544327,228.146208 L157.240545,228.146208 C159.265864,228.146208 161.038018,229.918676 161.038018,231.944354 C161.038018,233.970031 159.265864,235.742499 157.240545,235.742499 Z M125.848109,235.742499 L110.151891,235.742499 C108.126572,235.742499 106.354419,233.970031 106.354419,231.944354 C106.354419,229.918676 108.126572,228.146208 110.151891,228.146208 L125.848109,228.146208 C127.873428,228.146208 129.645581,229.918676 129.645581,231.944354 C129.645581,233.970031 127.873428,235.742499 125.848109,235.742499 Z M94.202508,235.742499 L78.5062898,235.742499 C76.4809713,235.742499 74.7088177,233.970031 74.7088177,231.944354 C74.7088177,229.918676 76.4809713,228.146208 78.5062898,228.146208 L94.202508,228.146208 C96.2278264,228.146208 97.9999801,229.918676 97.9999801,231.944354 C97.9999801,233.970031 96.4809912,235.742499 94.202508,235.742499 Z M62.8100717,235.742499 L52.1771497,235.742499 C49.6455016,235.742499 47.3670183,234.98287 45.3416998,233.716821 C43.5695462,232.703983 43.0632166,230.171886 44.0758758,228.399418 C45.088535,226.62695 47.6201831,226.120531 49.3923368,227.13337 C50.1518312,227.639789 51.1644904,227.892999 52.1771497,227.892999 L62.8100717,227.892999 C64.8353901,227.892999 66.6075438,229.665466 66.6075438,231.691144 C66.6075438,233.716821 64.8353901,235.742499 62.8100717,235.742499 Z M192.936783,220.296708 C190.911465,220.296708 189.139311,218.524241 189.139311,216.498563 L189.139311,200.799564 C189.139311,198.773886 190.911465,197.001418 192.936783,197.001418 C194.962102,197.001418 196.734256,198.773886 196.734256,200.799564 L196.734256,216.498563 C196.734256,218.524241 194.962102,220.296708 192.936783,220.296708 Z M43.0632166,220.043499 C41.0378981,220.043499 39.2657444,218.271031 39.2657444,216.245354 L39.2657444,200.546354 C39.2657444,198.520676 41.0378981,196.748209 43.0632166,196.748209 C45.088535,196.748209 46.8606887,198.520676 46.8606887,200.546354 L46.8606887,216.245354 C46.8606887,218.524241 45.088535,220.043499 43.0632166,220.043499 Z M192.936783,188.898709 C190.911465,188.898709 189.139311,187.379451 189.139311,185.100564 C189.139311,180.03637 188.632982,174.972177 187.620322,169.907983 C187.367158,167.882306 188.632982,165.856628 190.6583,165.603419 C192.683619,165.350209 194.708937,166.616258 194.962102,168.641935 C195.974761,173.959338 196.481091,179.529951 196.481091,184.847354 C196.734256,187.126241 195.215267,188.645499 192.936783,188.898709 C192.936783,188.898709 192.936783,188.898709 192.936783,188.898709 Z M43.0632166,188.645499 C43.0632166,188.645499 43.0632166,188.645499 43.0632166,188.645499 C40.7847333,188.645499 39.2657444,186.873031 39.2657444,184.847354 C39.5189092,179.276741 40.0252389,173.959338 40.7847333,168.641935 C41.0378981,166.616258 43.0632166,165.096999 45.088535,165.603419 C47.1138535,165.856628 48.6328424,167.882306 48.1265127,169.907983 C47.3670183,174.718967 46.8606887,180.03637 46.6075239,185.100564 C46.8606887,187.126241 45.088535,188.645499 43.0632166,188.645499 Z M187.620322,158.007129 C186.101334,158.007129 184.582345,156.99429 184.076015,155.475032 C182.557026,150.664048 180.531708,146.106274 178.00006,141.5485 C176.9874,139.776032 177.746895,137.497145 179.519049,136.484306 C181.291202,135.471468 183.569686,136.231097 184.582345,138.003564 C187.113993,142.814548 189.392476,147.878742 191.16463,152.942935 C191.924124,154.968612 190.6583,156.99429 188.886146,157.753919 C188.379817,157.753919 187.873487,158.007129 187.620322,158.007129 Z M48.6328424,157.753919 C48.1265127,157.753919 47.8733479,157.753919 47.3670183,157.500709 C45.3416998,156.74108 44.3290406,154.715403 45.088535,152.689725 C46.8606887,147.372322 49.139172,142.561338 51.6708201,137.750355 C52.6834793,135.977887 54.9619626,135.218258 56.7341162,136.231097 C58.5062699,137.243935 59.2657643,139.522822 58.2531051,141.29529 C55.9746218,145.599855 53.9493033,150.410838 52.1771497,155.221822 C51.6708201,156.74108 50.1518312,157.753919 48.6328424,157.753919 Z M172.683599,130.407274 C171.670939,130.407274 170.405115,129.900855 169.645621,128.888016 C169.139291,128.128387 168.632962,127.621968 168.126632,126.862339 C165.341819,123.570613 162.557006,120.532097 159.265864,118 C157.746875,116.733952 157.49371,114.201855 158.759534,112.682597 C160.025358,111.163339 162.557006,110.910129 164.075995,112.176177 C167.620303,115.214694 170.65828,118.506419 173.696258,122.051355 C174.202588,122.810984 174.962082,123.570613 175.468412,124.077032 C176.734236,125.8495 176.481071,128.128387 174.962082,129.394435 C174.202588,130.154064 173.443093,130.407274 172.683599,130.407274 Z M63.3164013,130.154064 C62.5569068,130.154064 61.5442476,129.900855 61.037918,129.394435 C59.5189291,128.128387 59.0125995,125.59629 60.5315884,124.077032 C61.037918,123.317403 61.5442476,122.810984 62.0505772,122.051355 C65.0885549,118.506419 68.3796975,115.214694 71.9240048,112.176177 C73.4429936,110.910129 75.9746417,110.910129 77.2404658,112.682597 C78.5062898,114.455065 78.5062898,116.733952 76.7341361,118 C73.6961584,120.785306 70.6581807,123.823823 67.8733678,126.862339 C67.3670382,127.368758 66.8607086,128.128387 66.354379,128.634806 C65.5948846,129.647645 64.5822253,130.154064 63.3164013,130.154064 Z" id="Shape" fill="#000000" fill-rule="nonzero"></path>
    </g>
</svg>