<?xml version="1.0" encoding="UTF-8"?>
<svg width="236px" height="236px" viewBox="0 0 236 236" version="1.1" xmlns="http://www.w3.org/2000/svg" xmlns:xlink="http://www.w3.org/1999/xlink">
    <!-- Generator: Sketch 61.2 (89653) - https://sketch.com -->
    <title>dnd</title>
    <desc>Created with Sketch.</desc>
    <g id="dnd" stroke="none" stroke-width="1" fill="none" fill-rule="evenodd">
        <path d="M117.233605,194.756419 C127.178124,194.756419 135.029061,187.421335 135.029061,178.252479 C135.029061,176.680675 134.767363,175.370839 134.243967,173.799035 C159.105266,172.227231 180.041096,167.773787 180.041096,159.652801 C164.862619,144.720665 160.413755,116.166229 159.366963,105.687537 L92.1106085,173.2751 C94.7275873,173.537068 97.3445661,173.799035 99.9615449,173.799035 C99.4381491,175.108871 99.1764512,176.680675 99.1764512,178.252479 C99.4381491,187.159367 107.289085,194.756419 117.233605,194.756419 Z" id="Path" fill="#000000" fill-rule="nonzero"></path>
        <path d="M126.393031,61.6770305 C127.178124,56.6996518 127.70152,52.7701423 127.70152,50.9363712 C127.70152,45.6970252 122.990958,41.2435811 117.233605,41.2435811 C111.476252,41.2435811 106.76569,45.6970252 106.76569,50.9363712 C106.76569,52.508175 107.289085,56.6996518 108.074179,61.6770305 C89.2319318,65.60654 75.3619442,81.0626107 75.3619442,99.662289 C75.3619442,100.448191 75.3619442,100.972125 75.3619442,101.49606 L75.3619442,101.49606 C75.3619442,101.49606 75.3619442,119.047869 69.342893,136.075744 L138.954529,66.3924419 C135.029061,64.2967035 130.841895,62.7248997 126.393031,61.6770305 Z" id="Path" fill="#000000" fill-rule="nonzero"></path>
        <path d="M-1,118 C-1,146.32 8.96444444,172.28 25.7466667,192.733333 C30.7288889,198.764444 36.2355556,204.533333 42.5288889,209.515556 C62.72,226.035556 88.68,236 117,236 C182.293333,236 235,183.293333 235,118 C235,89.68 225.035556,63.72 208.253333,43.2666667 C203.271111,37.2355556 197.764444,31.4666667 191.471111,26.4844444 C171.28,9.96444444 145.32,0 117,0 C51.7066667,0 -1,52.7066667 -1,118 Z M211.4,118 C211.4,170.182222 169.182222,212.4 117,212.4 C95.2355556,212.4 75.0444444,205.057778 59.0488889,192.471111 L191.471111,60.0488889 C204.057778,76.0444444 211.4,96.2355556 211.4,118 Z M174.951111,43.5288889 L42.5288889,175.951111 C29.9422222,159.955556 22.6,139.764444 22.6,118 C22.6,65.8177778 64.8177778,23.6 117,23.6 C138.764444,23.6 158.955556,30.9422222 174.951111,43.5288889 Z" id="cross" fill="#000000" fill-rule="nonzero"></path>
    </g>
</svg>